<svg width="1500" height="630" xmlns="http://www.w3.org/2000/svg" xmlns:svg="http://www.w3.org/2000/svg" version="1.1">
    <g class="layer">
        <title>Layer 1</title>
        <g id="logo" transform="matrix(1 0 0 1 0 0)">
            <path d="m0,0l630,0l0,630l-630,0l0,-630z" fill="#F7DF1E" id="background"/>
            <path d="m166.65,524.78l48.21,-29.17c9.3,16.49 17.77,30.44 38.06,30.44c19.45,0 31.72,-7.61 31.72,-37.21l0,-201.3l59.2,0l0,202.14c0,61.32 -35.94,89.23 -88.38,89.23c-47.36,0 -74.86,-24.53 -88.81,-54.13" display="none" fill="#000000" id="j"/>
            <path d="m375,520.13l48.21,-27.91c12.69,20.72 29.18,35.95 58.36,35.95c24.53,0 40.17,-12.27 40.17,-29.18c0,-20.3 -16.07,-27.49 -43.13,-39.33l-14.8,-6.35c-42.72,-18.18 -71.05,-41.02 -71.05,-89.23c0,-44.4 33.83,-78.23 86.69,-78.23c37.64,0 64.71,13.11 84.16,47.36l-46.1,29.6c-10.15,-18.18 -21.14,-25.37 -38.06,-25.37c-17.33,0 -28.33,11 -28.33,25.37c0,17.77 11,24.96 36.37,35.95l14.8,6.35c50.32,21.56 78.66,43.55 78.66,93.03c0,53.29 -41.87,82.46 -98.11,82.46c-54.98,0 -90.5,-26.21 -107.84,-60.47" display="none" fill="#000000" id="s"/>
            <g clip-path="url(#Clip_1)" id="cytoscape-logo">
                <path d="m520.19,478.64c26.94,0 48.78,21.85 48.78,48.78c0,26.93 -21.84,48.77 -48.78,48.77c-26.93,0 -48.77,-21.84 -48.77,-48.77c0,-12.47 4.73,-24.32 13.15,-33.31l-21.9,-43.71c-2.13,0.26 -4.28,0.38 -6.43,0.38c-10.93,0 -21.47,-3.27 -30.39,-9.37l-24.8,21.84c0.17,1.28 0.25,2.57 0.25,3.87c0,16.43 -13.32,29.76 -29.75,29.76c-16.44,0 -29.76,-13.33 -29.76,-29.76c0,-16.43 13.32,-29.76 29.76,-29.76c2.83,0 5.64,0.4 8.34,1.19l25.83,-22.75c-1.32,-3.49 -2.26,-7.12 -2.82,-10.81l-61.57,-8.3c-8.43,15.66 -24.85,25.66 -42.96,25.66c-26.93,0 -48.77,-21.84 -48.77,-48.77c0,-26.93 21.84,-48.77 48.77,-48.77c23.69,0 43.7,17 47.94,39.78l61.56,8.29c0.42,-0.82 0.84,-1.64 1.3,-2.44l-47.04,-48.04c-6.1,2.65 -12.69,4.02 -19.39,4.02c-26.93,0 -48.78,-21.85 -48.78,-48.78c0,-26.92 21.85,-48.77 48.78,-48.77c16.52,0 31.74,8.34 40.7,21.89l71.13,-17.94c3.19,-23.91 23.69,-42.26 48.34,-42.26c26.93,0 48.77,21.85 48.77,48.78c0,26.26 -20.77,47.68 -46.77,48.73l-19.28,63.5c15.2,9.88 24.57,26.82 24.57,45.26c0,15.47 -6.59,30 -17.94,40.17l21.1,42.12c2.26,-0.32 4.54,-0.48 6.83,-0.48zm-65.84,-135.74l19.53,-64.37c-4.99,-3.7 -9.23,-8.32 -12.5,-13.61l-70.12,17.69c-0.63,6.19 -2.43,12.18 -5.32,17.68l46.91,47.9c6.71,-3.23 14.01,-5.03 21.5,-5.29z" fill="#000000" id="svg_2"/>
            </g>
        </g>
        <text fill="#000000" font-family="Serif" font-size="200" id="svg_4" stroke="#000000" stroke-width="0" text-anchor="middle" x="1093" xml:space="preserve" y="442">Cytoscape</text>
    </g>
</svg>
